<svg width="108" height="64" viewBox="0 0 108 64" fill="none" xmlns="http://www.w3.org/2000/svg">
<g clip-path="url(#clip0_4434_3723)">
<path d="M103.992 63.93H106.931C107.265 63.93 107.532 63.8633 107.799 63.5963C107.999 63.3294 108.066 62.9957 108.066 62.7288C108.066 62.5285 108.066 62.0614 107.732 61.7944C107.598 61.661 107.398 61.5275 107.064 61.4608L105.328 60.9269C104.927 60.7934 104.86 60.5932 104.86 60.393C104.86 60.3263 104.86 60.126 104.994 59.9926C105.127 59.8591 105.261 59.8591 105.394 59.8591H107.799V59.125H105.06C104.86 59.125 104.526 59.1917 104.259 59.3919C103.992 59.6589 103.925 59.9926 103.925 60.2595C103.925 60.5265 103.925 60.9269 104.192 61.1271C104.393 61.3273 104.66 61.4608 104.727 61.4608L106.597 62.0614C106.997 62.1949 107.064 62.3951 107.064 62.5953C107.064 62.7288 107.064 63.1292 106.597 63.1292H103.925V63.93H103.992ZM103.658 63.93V63.1959H101.12C100.986 63.1959 100.853 63.1959 100.786 63.1292C100.719 63.0624 100.719 62.9957 100.719 62.929V61.7944H103.524V61.0604H100.719V60.126C100.719 60.0593 100.719 59.9926 100.786 59.9258C100.853 59.8591 100.919 59.8591 101.053 59.8591H103.658V59.125H100.586C100.385 59.125 100.185 59.125 99.9844 59.3252C99.8508 59.4587 99.8508 59.6589 99.8508 59.7924V63.1959C99.8508 63.3961 99.8508 63.5963 100.051 63.7298C100.185 63.8633 100.385 63.8633 100.586 63.8633H103.658V63.93ZM99.3165 63.93V63.1959H97.7135C97.1792 63.1959 96.7117 63.1292 96.4445 62.7288C96.3777 62.5953 96.2441 62.2616 96.2441 61.5942C96.2441 60.8601 96.3777 60.5265 96.5113 60.3263C96.7785 59.9258 97.246 59.8591 97.7803 59.8591H99.2497V59.125H97.3128C96.9788 59.125 96.2441 59.1917 95.7766 59.7256C95.3759 60.1928 95.3091 60.9269 95.3091 61.5942C95.3091 62.1281 95.3759 62.8622 95.7766 63.3294C96.2441 63.7965 96.8452 63.8633 97.3128 63.8633H99.3165V63.93ZM94.7747 63.93V59.1917H93.9065V63.93H94.7747ZM89.7655 59.1917H88.8304L90.567 63.4629C90.7673 63.93 91.1013 63.9967 91.3684 63.9967C91.836 63.9967 92.0363 63.7298 92.1699 63.4629L93.9065 59.1917H92.8378L91.4352 63.0624C91.4352 63.1292 91.3684 63.1959 91.3016 63.1959C91.2349 63.1959 91.2349 63.1292 91.1681 63.0624L89.7655 59.1917ZM84.5558 63.93H85.4241V60.1928C85.4241 60.126 85.4241 59.9926 85.4909 59.9258C85.5577 59.8591 85.6245 59.8591 85.758 59.8591H87.2274C87.361 59.8591 87.5614 59.8591 87.7618 59.9926C87.8285 60.0593 87.9621 60.2595 87.9621 60.6599C87.9621 60.7934 87.9621 61.1938 87.8286 61.3273C87.695 61.5275 87.4946 61.5275 87.361 61.5275H86.4927C86.2256 61.5275 86.092 61.661 86.092 61.8612V61.9947C86.092 62.1281 86.2256 62.3283 86.2924 62.3951L87.8286 63.93H88.964L87.1606 62.2616V62.1949H87.7618C88.2961 62.1949 88.5632 61.9279 88.63 61.7277C88.8304 61.394 88.8304 60.9936 88.8304 60.6599C88.8304 60.3263 88.8304 59.9258 88.5632 59.5922C88.2961 59.1917 87.8953 59.125 87.5614 59.125H85.2905C85.0901 59.125 84.8898 59.125 84.6894 59.3252C84.489 59.5254 84.489 59.7256 84.489 59.9258V63.93H84.5558ZM84.0883 63.93V63.1959H81.4835C81.3499 63.1959 81.2163 63.1959 81.1495 63.1292C81.0827 63.0624 81.0827 62.9957 81.0827 62.929V61.7944H83.8879V61.0604H81.0827V60.126C81.0827 60.0593 81.0827 59.9926 81.1495 59.9258C81.2163 59.8591 81.2831 59.8591 81.4167 59.8591H84.0215V59.125H80.9491C80.7488 59.125 80.5484 59.125 80.348 59.3252C80.2145 59.4587 80.2144 59.6589 80.2144 59.7924V63.1959C80.2144 63.3961 80.2144 63.5963 80.4148 63.7298C80.5484 63.8633 80.7488 63.8633 80.9491 63.8633H84.0883V63.93ZM75.7395 63.93H78.6783C79.0122 63.93 79.2794 63.8633 79.5465 63.5963C79.7469 63.3294 79.8137 62.9957 79.8137 62.7288C79.8137 62.5285 79.8137 62.0614 79.4798 61.7944C79.3462 61.661 79.1458 61.5275 78.8119 61.4608L77.0753 60.9269C76.6746 60.7934 76.6078 60.5932 76.6078 60.393C76.6078 60.3263 76.6078 60.126 76.7413 59.9926C76.8749 59.8591 77.0085 59.8591 77.1421 59.8591H79.5465V59.125H76.8081C76.6078 59.125 76.2738 59.1917 76.0067 59.3919C75.7395 59.6589 75.6727 59.9926 75.6727 60.2595C75.6727 60.5265 75.6727 60.9269 75.9399 61.1271C76.1402 61.3273 76.4074 61.4608 76.4742 61.4608L78.3443 62.0614C78.7451 62.1949 78.8119 62.3951 78.8119 62.5953C78.8119 62.7288 78.8119 63.1292 78.3443 63.1292H75.6727V63.93H75.7395ZM70.1959 60.1928C70.1959 60.0593 70.2627 59.9926 70.2627 59.9258C70.3295 59.8591 70.3963 59.8591 70.4631 59.8591H71.3981C71.7321 59.8591 72.1328 59.9258 72.4 60.1928C72.6671 60.5265 72.7339 60.9936 72.7339 61.394C72.7339 62.1949 72.6003 62.5285 72.4668 62.7288C72.2664 63.0624 71.9324 63.1959 71.4649 63.1959H70.4631C70.3963 63.1959 70.2627 63.1959 70.2627 63.1292C70.1959 63.0624 70.1959 62.9957 70.1959 62.8622V60.1928ZM71.9992 63.93C72.7339 63.93 73.1347 63.5963 73.335 63.3294C73.7358 62.7955 73.7358 61.9947 73.7358 61.4608C73.7358 60.8601 73.7358 60.1928 73.2682 59.7256C73.0011 59.3919 72.5336 59.1917 71.8657 59.1917H69.9955C69.7284 59.1917 69.528 59.3252 69.4612 59.3919C69.3276 59.5922 69.3276 59.7924 69.3276 59.9258V63.3294C69.3276 63.5963 69.4612 63.7298 69.528 63.7965C69.5948 63.7965 69.7284 63.93 70.0623 63.93H71.9992ZM68.8601 63.93V63.1959H66.3221C66.1885 63.1959 66.0549 63.1959 65.9881 63.1292C65.9213 63.0624 65.9213 62.9957 65.9213 62.929V61.7944H68.7265V61.0604H65.9213V60.126C65.9213 60.0593 65.9213 59.9926 65.9881 59.9258C66.0549 59.8591 66.1217 59.8591 66.2553 59.8591H68.8601V59.125H65.7877C65.5874 59.125 65.387 59.125 65.1866 59.3252C65.053 59.4587 65.053 59.6589 65.053 59.7924V63.1959C65.053 63.3961 65.053 63.5963 65.2534 63.7298C65.387 63.8633 65.5874 63.8633 65.7877 63.8633H68.8601V63.93ZM62.9157 63.93V59.8591H64.7859V59.125H60.1773V59.8591H62.0475V63.93H62.9157ZM58.5076 60.1928C58.5076 60.126 58.5744 59.9926 58.6412 59.9926C58.708 59.9926 58.7747 60.126 58.7747 60.1928L59.5762 62.1281H57.7729L58.5076 60.1928ZM56.1031 63.93H57.0382L57.5057 62.7288H59.7766L60.2441 63.93H61.1792L59.4426 59.6589C59.2423 59.2585 59.0419 59.125 58.6412 59.125C58.2404 59.125 58.0401 59.2585 57.8397 59.6589L56.1031 63.93ZM51.8285 63.93H52.7636V60.1928C52.7636 60.126 52.7636 59.9926 52.8304 59.9258C52.8972 59.8591 52.964 59.8591 53.0976 59.8591H54.567C54.7005 59.8591 54.9009 59.8591 55.1013 59.9926C55.1681 60.0593 55.3017 60.2595 55.3017 60.6599C55.3017 60.7934 55.3016 61.1938 55.1681 61.3273C55.0345 61.5275 54.8341 61.5275 54.7005 61.5275H53.8323C53.5651 61.5275 53.4315 61.661 53.4315 61.8612V61.9947C53.4315 62.1281 53.5651 62.3283 53.6319 62.3951L55.1681 63.93H56.3035L54.5002 62.2616V62.1949H55.1013C55.6356 62.1949 55.9028 61.9279 55.9696 61.7277C56.1031 61.394 56.1031 60.9936 56.1031 60.6599C56.1031 60.3263 56.1031 59.9258 55.836 59.5922C55.5688 59.1917 55.1681 59.125 54.8341 59.125H52.5632C52.3629 59.125 52.1625 59.125 51.9621 59.3252C51.7618 59.5254 51.7618 59.7256 51.7618 59.9258V63.93H51.8285ZM51.2942 61.5942H50.426V62.8622C50.426 62.929 50.426 63.0624 50.3592 63.1292C50.2924 63.1959 50.2256 63.1959 50.092 63.1959H48.9566C48.5558 63.1959 48.2219 63.0624 48.0215 62.7288C47.9547 62.5953 47.8211 62.2616 47.8211 61.5275C47.8211 60.8601 47.9547 60.5265 48.0215 60.393C48.2219 60.0593 48.5558 59.8591 49.0901 59.8591H51.2274V59.125H48.8898C48.4222 59.125 48.0215 59.2585 47.7543 59.3919C47.0864 59.8591 46.9529 60.7267 46.9529 61.5275C46.9529 62.1949 47.0196 62.9957 47.554 63.5296C47.7543 63.7298 48.1551 63.93 48.6894 63.93H50.6931C50.8267 63.93 51.0271 63.8633 51.1606 63.7965C51.2274 63.7298 51.361 63.5963 51.361 63.3294V61.5942H51.2942ZM46.5521 63.93V63.1959H44.0141C43.8805 63.1959 43.7469 63.1959 43.6801 63.1292C43.6133 63.0624 43.6133 62.9957 43.6133 62.929V61.7944H46.4185V61.0604H43.6133V60.126C43.6133 60.0593 43.6133 59.9926 43.6801 59.9258C43.7469 59.8591 43.8137 59.8591 43.9473 59.8591H46.5521V59.125H43.413C43.2126 59.125 43.0122 59.125 42.8118 59.3252C42.6783 59.4587 42.6783 59.6589 42.6783 59.7924V63.1959C42.6783 63.3961 42.6783 63.5963 42.8786 63.7298C43.0122 63.8633 43.2126 63.8633 43.413 63.8633H46.5521V63.93ZM40.6078 63.93V59.8591H42.4779V59.125H37.8694V59.8591H39.7395V63.93H40.6078ZM37.669 59.1917H36.8007V62.7288C36.8007 62.7955 36.8007 62.8622 36.7339 62.8622C36.6671 62.8622 36.6671 62.7955 36.6003 62.7288L34.5966 59.5254C34.4631 59.3252 34.2627 59.125 33.8619 59.125C33.3944 59.125 33.1272 59.3919 33.1272 59.7924V63.93H33.9955V60.4597C33.9955 60.393 34.0623 60.3263 34.0623 60.3263C34.0623 60.3263 34.1291 60.3263 34.1959 60.4597L36.1996 63.5963C36.4 63.93 36.6671 63.9967 37.0011 63.9967C37.4018 63.9967 37.7358 63.7965 37.7358 63.3294V59.1917H37.669ZM32.3926 63.93V59.1917H31.5243V63.93H32.3926ZM29.1866 59.1917H28.3183V62.7288C28.3183 62.7955 28.3183 62.8622 28.2516 62.8622C28.1848 62.8622 28.1848 62.7955 28.118 62.7288L26.1143 59.5254C25.9807 59.3252 25.7803 59.125 25.3796 59.125C24.912 59.125 24.6449 59.3919 24.6449 59.7924V63.93H25.5131V60.4597C25.5131 60.393 25.5799 60.3263 25.5799 60.3263C25.5799 60.3263 25.6467 60.3263 25.7135 60.4597L27.7172 63.5963C27.9176 63.93 28.1848 63.9967 28.5187 63.9967C28.9195 63.9967 29.2534 63.7965 29.2534 63.3294V59.1917H29.1866ZM21.8397 60.1928C21.8397 60.126 21.9065 59.9926 21.9733 59.9926C22.04 59.9926 22.1068 60.126 22.1068 60.1928L22.9083 62.1281H21.105L21.8397 60.1928ZM19.4352 63.93H20.3703L20.8378 62.7288H23.1087L23.5762 63.93H24.5113L22.708 59.6589C22.5076 59.2585 22.3072 59.125 21.9065 59.125C21.5057 59.125 21.3054 59.2585 21.105 59.6589L19.4352 63.93ZM19.3684 63.93V59.1917H18.5002V63.93H19.3684ZM14.4927 61.5275V60.1928C14.4927 60.126 14.4927 60.0593 14.5595 59.9926C14.6263 59.9258 14.6931 59.9258 14.7599 59.9258H16.2293C16.3629 59.9258 16.63 59.9258 16.7636 60.0593C16.8972 60.1928 16.964 60.5265 16.964 60.7267C16.964 60.9269 16.964 61.1938 16.8304 61.394C16.6968 61.5942 16.4297 61.5942 16.2293 61.5942H14.4927V61.5275ZM14.4927 63.93V62.2616H16.6968C16.964 62.2616 17.2311 62.1949 17.4315 62.0614C17.8323 61.7277 17.8323 61.1271 17.8323 60.7267C17.8323 60.3263 17.7655 59.7924 17.4983 59.4587C17.2311 59.1917 16.8304 59.1917 16.5632 59.1917H14.2924C14.1588 59.1917 13.8916 59.1917 13.758 59.3919C13.6245 59.5254 13.6245 59.7256 13.6245 59.9258V63.9967H14.4927V63.93ZM9.08272 63.93H12.0215C12.3554 63.93 12.6226 63.8633 12.8898 63.5963C13.0901 63.3294 13.1569 62.9957 13.1569 62.7288C13.1569 62.5285 13.1569 62.0614 12.823 61.7944C12.6894 61.661 12.489 61.5275 12.1551 61.4608L10.4185 60.9269C10.0178 60.7934 9.95099 60.5932 9.95099 60.393C9.95099 60.3263 9.95099 60.126 10.0846 59.9926C10.2182 59.8591 10.3517 59.8591 10.4853 59.8591H12.8898V59.125H10.1514C9.95099 59.125 9.61704 59.1917 9.34988 59.3919C9.08272 59.6589 9.01593 59.9926 9.01593 60.2595C9.01593 60.5265 9.01593 60.9269 9.28309 61.1271C9.48346 61.3273 9.75062 61.4608 9.81741 61.4608L11.6875 62.0614C12.0883 62.1949 12.1551 62.3951 12.1551 62.5953C12.1551 62.7288 12.1551 63.1292 11.6875 63.1292H9.01593V63.93H9.08272ZM6.4779 60.1928C6.4779 60.126 6.54469 59.9926 6.61148 59.9926C6.67827 59.9926 6.74506 60.126 6.74506 60.1928L7.54654 62.1281H5.67641L6.4779 60.1928ZM4.00665 63.93H4.94172L5.40925 62.7288H7.68012L8.14766 63.93H9.08272L7.34617 59.6589C7.1458 59.2585 6.94543 59.125 6.54469 59.125C6.14394 59.125 5.94357 59.2585 5.7432 59.6589L4.00665 63.93ZM4.14023 63.93V63.1959H2.53727C2.00294 63.1959 1.53541 63.1292 1.26825 62.7288C1.20146 62.5953 1.06788 62.2616 1.06788 61.5942C1.06788 60.8601 1.20146 60.5265 1.33504 60.3263C1.6022 59.9258 2.06973 59.8591 2.60406 59.8591H4.07344V59.125H2.13652C1.80257 59.125 1.06788 59.1917 0.600345 59.7256C0.199603 60.1928 0.132812 60.9269 0.132812 61.5942C0.132812 62.1281 0.199603 62.8622 0.600345 63.3294C1.06788 63.7965 1.66899 63.8633 2.13652 63.8633H4.14023V63.93Z" fill="#001E88"/>
<path fill-rule="evenodd" clip-rule="evenodd" d="M49.4268 21.756C48.4917 20.1543 46.6884 17.0845 48.4249 13.6809L52.4323 6.74036C59.9128 14.7487 56.1726 19.22 54.77 21.756C58.2431 20.8217 61.3822 15.2826 59.7793 10.2774C58.3767 5.93952 54.1021 1.93535 51.2969 0C48.4917 6.33994 46.9555 6.40667 44.9518 10.0772C42.6809 14.1481 45.8869 20.9552 49.4268 21.756Z" fill="#A31E08"/>
<path fill-rule="evenodd" clip-rule="evenodd" d="M91.3036 8.07812H104.662L101.389 16.5536H88.0977L91.3036 8.07812Z" fill="#A31E08"/>
<path fill-rule="evenodd" clip-rule="evenodd" d="M79.4156 8.07812H85.2263L82.0872 16.5536H80.9517C75.8089 16.5536 73.2041 18.6224 73.2041 22.6933C73.2041 24.4285 73.8052 25.6965 75.0074 26.4973C76.1428 27.3649 77.679 27.832 79.5492 27.832H92.5733C95.1113 27.832 97.3822 28.0322 99.3191 28.3659C101.122 28.7663 102.926 29.8341 104.863 31.5693C106.733 33.3044 107.735 36.5077 107.735 41.1793C107.735 42.4473 107.668 43.5818 107.468 44.7163C107.267 45.7841 106.866 47.0521 106.265 48.4535C105.664 49.9217 104.662 51.1897 103.26 52.2575C101.857 53.3253 100.121 54.0594 98.1837 54.5265C96.3803 54.9937 94.0427 55.2606 91.2375 55.2606L74.1391 55.1271L77.4119 46.7184L89.7013 46.7851C92.1725 46.7851 94.0427 46.4514 95.3785 45.7173C96.7143 44.9832 97.3822 43.6485 97.3822 41.6464V40.6454C97.2486 39.3107 96.9146 38.3096 96.3135 37.709C95.5788 37.0416 94.7106 36.6412 93.7755 36.3743C92.8404 36.1741 91.705 36.0406 90.3692 36.0406H78.6809C73.6716 36.0406 69.731 34.9728 66.9926 32.904C64.2542 30.8352 62.8516 27.2981 62.8516 22.3597C62.8516 19.8904 63.2523 17.6214 64.1206 15.686C64.9221 13.7507 66.0575 12.2158 67.5269 11.148C68.9963 10.0802 70.5992 9.34611 72.5362 8.87896C74.2727 8.34507 76.5436 8.07812 79.4156 8.07812Z" fill="#A31E08"/>
<path fill-rule="evenodd" clip-rule="evenodd" d="M41.3432 8.00847L38.3377 16.0168L22.2412 15.8833C19.3692 15.8833 17.0983 16.5507 15.3618 17.9522C13.692 19.3536 12.5566 20.8218 12.0891 22.557C11.6215 24.2254 11.2876 25.7603 11.0204 27.2285C10.82 28.63 10.6865 30.0314 10.6865 31.4329V32.3004V33.0345C10.6865 33.6352 10.6865 34.3025 10.7532 35.0366C10.82 35.7707 10.8868 36.6383 11.0204 37.6393C11.154 38.6404 11.4212 39.7749 11.8887 40.9094C12.3562 42.1107 12.9573 43.1784 13.8256 44.1795C14.8942 45.314 16.0965 46.0481 17.3655 46.315C18.6345 46.582 20.2375 46.7155 22.2412 46.7155H26.449L23.3766 54.7905C22.7755 54.7238 15.1614 54.3901 13.8924 54.0564C11.6883 53.5225 9.48423 52.388 7.28015 50.7864C4.60853 48.5173 2.7384 45.7812 1.60297 42.6446C0.534323 39.4412 0 35.9709 0 32.3004V29.4975C0 27.8291 0.200371 26.1607 0.534323 24.559C0.868275 22.9574 1.33581 21.4224 1.87013 19.9542C2.40445 18.4861 3.00557 17.2848 3.67347 16.1503C4.34137 15.0825 5.41002 13.8145 6.74583 12.4798C8.08163 11.1451 9.75139 10.144 11.6215 9.47667C13.5584 8.87604 15.3618 8.40889 17.0315 8.20868C18.7013 8.00847 20.3711 7.875 22.1076 7.875L41.3432 8.00847Z" fill="#A31E08"/>
<path fill-rule="evenodd" clip-rule="evenodd" d="M53.032 29.2276V24.089H53.5663L54.1674 29.2276H53.032ZM51.6294 29.2276V24.089H51.0951L50.4939 29.2276H51.6294ZM31.5255 46.7793H72.0004L68.9281 54.9211H28.4531L31.5255 46.7793ZM52.9652 46.7793V31.6301H54.4346L56.2379 46.7793H58.8427L56.1043 31.6301H57.5069L58.442 29.1609H55.6368L54.5682 22.6875H50.0264L48.891 29.2276H47.3548L46.4197 31.6301H48.4902L45.8186 46.846H52.9652V46.7793Z" fill="#001E88"/>
</g>
<defs>
<clipPath id="clip0_4434_3723">
<rect width="108" height="64" fill="white"/>
</clipPath>
</defs>
</svg>
